HIERARCHY
ROOT root
{
	OFFSET 0.000000 0.000000 0.000000
	CHANNELS 6 Xposition Yposition Zposition Zrotation Yrotation Xrotation
	JOINT lhip
	{
		OFFSET 0.058581 -0.082280 -0.017664
		CHANNELS 3 Zrotation Yrotation Xrotation
		JOINT lknee
		{
			OFFSET 0.043451 -0.386469 0.008037
			CHANNELS 3 Zrotation Yrotation Xrotation
			JOINT lankle
			{
				OFFSET -0.014790 -0.426874 -0.037428
				CHANNELS 3 Zrotation Yrotation Xrotation
				JOINT ltoe
				{
					OFFSET 0.041054 -0.060286 0.122042
					CHANNELS 3 Zrotation Yrotation Xrotation
					End Site
					{
						OFFSET 0.000000 0.000000 0.000000
					}
				}
			}
		}
	}
	JOINT rhip
	{
		OFFSET -0.060310 -0.090513 -0.013543
		CHANNELS 3 Zrotation Yrotation Xrotation
		JOINT rknee
		{
			OFFSET -0.043257 -0.383688 -0.004843
			CHANNELS 3 Zrotation Yrotation Xrotation
			JOINT rankle
			{
				OFFSET 0.019056 -0.420046 -0.034562
				CHANNELS 3 Zrotation Yrotation Xrotation
				JOINT rtoe
				{
					OFFSET -0.034840 -0.062106 0.130323
					CHANNELS 3 Zrotation Yrotation Xrotation
					End Site
					{
						OFFSET 0.000000 0.000000 0.000000
					}
				}
			}
		}
	}
	JOINT lowerback
	{
		OFFSET 0.004439 0.124404 -0.038385
		CHANNELS 3 Zrotation Yrotation Xrotation
		JOINT upperback
		{
			OFFSET 0.004488 0.137956 0.026820
			CHANNELS 3 Zrotation Yrotation Xrotation
			JOINT chest
			{
				OFFSET -0.002265 0.056032 0.002855
				CHANNELS 3 Zrotation Yrotation Xrotation
				JOINT lowerneck
				{
					OFFSET -0.013390 0.211636 -0.033468
					CHANNELS 3 Zrotation Yrotation Xrotation
					JOINT upperneck
					{
						OFFSET 0.010113 0.088937 0.050410
						CHANNELS 3 Zrotation Yrotation Xrotation
						End Site
						{
							OFFSET 0.000000 0.000000 0.000000
						}
					}
				}
				JOINT lclavicle
				{
					OFFSET 0.071702 0.114000 -0.018898
					CHANNELS 3 Zrotation Yrotation Xrotation
					JOINT lshoulder
					{
						OFFSET 0.122921 0.045205 -0.019046
						CHANNELS 3 Zrotation Yrotation Xrotation
						JOINT lelbow
						{
							OFFSET 0.255332 -0.015649 -0.022946
							CHANNELS 3 Zrotation Yrotation Xrotation
							JOINT lwrist
							{
								OFFSET 0.265709 0.012698 -0.007375
								CHANNELS 3 Zrotation Yrotation Xrotation
								End Site
								{
									OFFSET 0.000000 0.000000 0.000000
								}
							}
						}
					}
				}
				JOINT rclavicle
				{
					OFFSET -0.082954 0.112472 -0.023707
					CHANNELS 3 Zrotation Yrotation Xrotation
					JOINT rshoulder
					{
						OFFSET -0.113228 0.046853 -0.008472
						CHANNELS 3 Zrotation Yrotation Xrotation
						JOINT relbow
						{
							OFFSET -0.260127 -0.014369 -0.031269
							CHANNELS 3 Zrotation Yrotation Xrotation
							JOINT rwrist
							{
								OFFSET -0.269108 0.006794 -0.006027
								CHANNELS 3 Zrotation Yrotation Xrotation
								End Site
								{
									OFFSET 0.000000 0.000000 0.000000
								}
							}
						}
					}
				}
			}
		}
	}
}
MOTION
Frames: 7
Frame Time: 0.033333
-0.271334 2.445379 0.844994 -103.634903 -0.569893 99.483325 12.340116 9.427082 -50.694199 -10.201580 9.188018 56.018137 2.356949 6.205765 -18.843269 0.000000 -0.000000 0.000000 -12.319499 -14.723078 -44.156326 3.518767 -14.588220 77.543392 6.640785 0.217457 -23.425114 0.000000 -0.000000 0.000000 -4.456644 6.851025 44.351712 -2.419830 -1.693672 -8.196735 0.419661 -1.648680 -1.669580 -6.858845 4.032895 -22.784560 1.978419 -2.687115 -6.029133 -25.675596 -14.176939 3.009702 -19.591999 -1.747267 7.948561 -16.089651 -69.440712 20.908265 18.010915 -17.505115 -17.271602 25.900302 18.940021 4.045899 32.700421 4.715041 7.453939 -22.206668 63.867025 -26.398087 -15.651711 21.900453 -25.016127 
-0.275706 2.444621 0.847158 -103.834373 0.914586 100.116837 13.786670 10.690476 -50.922063 -10.767234 9.306711 56.013966 2.669017 5.881660 -19.100357 0.000000 -0.000000 0.000000 -13.021665 -15.607804 -45.639501 6.610152 -13.324043 78.500573 8.584130 4.870489 -18.677025 0.000000 -0.000000 0.000000 -4.068598 6.879586 43.698519 -2.158456 -1.356286 -7.569138 0.227674 -1.557845 -1.937537 -7.033855 5.005911 -22.756533 2.135869 -3.261860 -6.398871 -24.609152 -14.578153 2.819305 -18.438585 -0.685022 7.982472 -20.632130 -68.777220 25.575922 17.718381 -17.581151 -17.758798 26.414695 19.035015 4.623323 32.925663 4.732973 6.938772 -21.792293 64.669867 -25.565499 -15.324820 21.894220 -25.076610 
-0.279189 2.444611 0.848724 -103.489817 2.314962 100.663104 14.706924 11.562175 -51.453261 -10.994014 8.656271 56.133106 2.735117 5.704649 -19.190775 0.000000 -0.000000 0.000000 -13.721824 -16.497034 -45.988296 8.210222 -11.907339 77.568109 9.280524 5.407362 -17.719691 0.000000 -0.000000 0.000000 -3.209158 6.428478 43.181903 -1.940603 -1.233370 -7.045995 0.009605 -1.561214 -2.147209 -7.192639 5.298513 -22.811836 2.319140 -3.444398 -6.346403 -23.818330 -14.729745 2.811528 -16.817373 0.083651 8.194246 -26.153832 -68.652526 30.942156 18.024458 -17.372065 -18.119944 26.811255 19.187781 5.113756 32.955010 4.528855 7.004775 -22.301299 65.486552 -26.362887 -15.235517 21.939434 -25.023738 
-0.280842 2.446661 0.850783 -102.979443 3.267076 100.899916 15.452644 11.793724 -51.499434 -10.989385 8.091191 55.746631 2.496446 5.696533 -19.100757 0.000000 -0.000000 0.000000 -14.670126 -16.868206 -45.116512 5.397985 -10.856737 74.558772 7.867338 -1.076965 -18.830692 0.000000 -0.000000 0.000000 -2.303187 6.454395 43.582681 -1.688984 -1.474374 -7.679214 0.016338 -1.856913 -1.759483 -7.072553 4.676132 -22.835427 2.485583 -2.822029 -6.016327 -22.978167 -14.728269 3.390621 -15.179510 -0.068310 7.719219 -30.876325 -68.016837 36.758395 18.574898 -17.734351 -19.296648 26.550439 19.454447 5.213750 33.691289 4.212392 7.805549 -24.492998 65.777334 -28.313304 -15.149942 22.037999 -24.969123 
-0.281115 2.450106 0.852116 -102.717069 3.879329 101.484379 15.868935 12.140203 -52.003490 -10.663134 7.608482 55.555471 1.810207 5.373813 -18.962047 0.000000 -0.000000 0.000000 -15.686497 -16.771700 -44.279741 3.474727 -9.196728 69.726925 7.689997 -2.988675 -19.554447 0.000000 -0.000000 0.000000 -1.833439 6.525983 43.508203 -1.412018 -1.699212 -8.353710 0.212554 -1.936306 -1.449732 -7.204287 5.145227 -22.628641 2.272899 -2.926695 -5.958955 -22.163052 -14.830612 3.872310 -14.192103 -0.261469 7.590323 -33.105699 -67.595929 39.703843 18.295026 -18.353673 -19.461765 26.219492 19.137980 5.407280 34.068557 4.285724 8.144263 -25.194263 66.143685 -28.877079 -15.884019 22.201763 -25.572632 
-0.279369 2.457143 0.852338 -103.015361 4.486886 102.265944 16.775068 12.967465 -52.477047 -10.413914 7.569526 55.220788 1.008899 5.033408 -18.749582 0.000000 -0.000000 0.000000 -15.894006 -15.878319 -44.285416 4.209505 -6.622168 64.666810 8.115602 -2.603827 -19.664651 0.000000 -0.000000 0.000000 -2.165801 6.498988 42.390754 -1.226003 -1.303364 -7.970662 0.386267 -1.779250 -1.448486 -7.597283 5.939033 -22.622619 2.338315 -3.349130 -6.334475 -21.728118 -14.881016 4.066618 -12.560265 -0.553237 7.443518 -34.979151 -67.580228 41.331149 18.256762 -18.592875 -19.505809 26.451662 18.865152 5.730115 34.039494 4.581089 8.401371 -25.499888 66.392130 -29.094262 -16.398078 22.123773 -25.708106 
-0.276703 2.465806 0.853663 -103.195758 4.528853 102.108329 17.201646 13.416494 -51.787657 -10.177539 7.332566 54.369297 0.382118 4.951673 -18.387176 0.000000 -0.000000 0.000000 -16.084903 -15.353172 -43.696466 5.393794 -3.639466 60.689275 9.227465 -0.989169 -19.438318 0.000000 -0.000000 0.000000 -2.042908 7.075791 43.080018 -0.969865 -1.797874 -8.119446 0.513851 -1.979882 -1.601077 -7.911945 6.587002 -23.296121 2.152582 -3.635315 -5.884294 -20.981654 -15.135925 3.754775 -12.327556 -0.735531 7.281511 -33.865091 -67.915233 40.613362 18.494477 -18.871964 -19.882293 26.653916 19.051879 5.564732 33.402421 4.429021 8.582854 -25.896625 66.571395 -29.032286 -14.571190 22.028650 -25.723226 
